# xmcd
#
# Track frame offsets: 
#        150
#        13722
#        28112
#        46887
#        62100
#        72537
#        84125
#        101175
#        125712
#
# Disc length: 1873 seconds
#
# Revision: 0
# Processed by: cddbd v1.4PL0 Copyright (c) Steve Scherf et al.
# Submitted via: ExactAudioCopy v0.90b3
#
DISCID=7a074f09
DTITLE=Ricky Skaggs - Crying My Heart Out Over You
DYEAR=1900
DGENRE=Country
TTITLE0=Crying My Heart Out Over You
TTITLE1=I Wonder If I Care As Much
TTITLE2=San Antonio Rose
TTITLE3=Window Up Above
TTITLE4=I Don't Care
TTITLE5=Only Daddy That'll Walk The Line
TTITLE6=Can't You Hear Me Callin'
TTITLE7=One Way Rider
TTITLE8=Don't Cheat In Our Hometown
EXTD=
EXTT0=
EXTT1=
EXTT2=
EXTT3=
EXTT4=
EXTT5=
EXTT6=
EXTT7=
EXTT8=
PLAYORDER=
